<mxfile host="Electron" agent="Mozilla/5.0 (Windows NT 10.0; Win64; x64) AppleWebKit/537.36 (KHTML, like Gecko) draw.io/25.0.2 Chrome/128.0.6613.186 Electron/32.2.5 Safari/537.36" version="25.0.2">
  <diagram name="PÃ¡gina-1" id="XoVfdVzmXT0FCT3dWPdM">
    <mxGraphModel dx="1093" dy="157" grid="1" gridSize="10" guides="1" tooltips="1" connect="1" arrows="1" fold="1" page="1" pageScale="1" pageWidth="827" pageHeight="1169" background="none" math="0" shadow="1">
      <root>
        <mxCell id="0" />
        <mxCell id="1" parent="0" />
        <mxCell id="gqJFN9A-wY2o9Y6DUlTp-1" value="INICIO - menu" style="ellipse;whiteSpace=wrap;rounded=1;fillColor=#dae8fc;strokeColor=#6c8ebf;textShadow=1;strokeWidth=1;shadow=1;html=1;horizontal=1;fontSize=11;fontStyle=0;spacing=2;" parent="1" vertex="1">
          <mxGeometry x="332.8" y="20" width="140" height="80" as="geometry" />
        </mxCell>
        <mxCell id="gqJFN9A-wY2o9Y6DUlTp-11" value="mostrar_menu();" style="rounded=1;whiteSpace=wrap;fillColor=#fff2cc;strokeColor=#d6b656;textShadow=1;strokeWidth=1;shadow=1;html=1;horizontal=1;fontSize=11;fontStyle=0;spacing=2;" parent="1" vertex="1">
          <mxGeometry x="235.6" y="130" width="334.4" height="40" as="geometry" />
        </mxCell>
        <mxCell id="gqJFN9A-wY2o9Y6DUlTp-24" value="" style="edgeStyle=orthogonalEdgeStyle;rounded=1;orthogonalLoop=1;jettySize=auto;fillColor=#dae8fc;strokeColor=#6c8ebf;textShadow=1;strokeWidth=1;shadow=1;html=1;horizontal=1;fontSize=11;fontStyle=0;spacing=2;exitX=0.5;exitY=1;exitDx=0;exitDy=0;" parent="1" edge="1">
          <mxGeometry relative="1" as="geometry">
            <mxPoint x="402.59000000000003" y="100" as="sourcePoint" />
            <mxPoint x="402.8" y="130" as="targetPoint" />
          </mxGeometry>
        </mxCell>
        <mxCell id="PQLrcjKw0SPNk92803Bu-1" value="Escribir(&quot;Seleccione una opcion: &quot;);" style="rounded=1;whiteSpace=wrap;fillColor=#fff2cc;strokeColor=#d6b656;textShadow=1;strokeWidth=1;shadow=1;html=1;horizontal=1;fontSize=11;fontStyle=0;spacing=2;" parent="1" vertex="1">
          <mxGeometry x="235.6" y="200" width="334.4" height="40" as="geometry" />
        </mxCell>
        <mxCell id="PQLrcjKw0SPNk92803Bu-2" value="" style="edgeStyle=orthogonalEdgeStyle;rounded=1;orthogonalLoop=1;jettySize=auto;fillColor=#dae8fc;strokeColor=#6c8ebf;textShadow=1;strokeWidth=1;shadow=1;html=1;horizontal=1;fontSize=11;fontStyle=0;spacing=2;exitX=0.5;exitY=1;exitDx=0;exitDy=0;" parent="1" edge="1">
          <mxGeometry relative="1" as="geometry">
            <mxPoint x="402.59000000000003" y="170" as="sourcePoint" />
            <mxPoint x="402.8" y="200" as="targetPoint" />
          </mxGeometry>
        </mxCell>
        <mxCell id="PQLrcjKw0SPNk92803Bu-3" value="Leer(opcion);" style="rounded=1;whiteSpace=wrap;fillColor=#fff2cc;strokeColor=#d6b656;textShadow=1;strokeWidth=1;shadow=1;html=1;horizontal=1;fontSize=11;fontStyle=0;spacing=2;" parent="1" vertex="1">
          <mxGeometry x="235.6" y="270" width="334.4" height="40" as="geometry" />
        </mxCell>
        <mxCell id="PQLrcjKw0SPNk92803Bu-4" value="" style="edgeStyle=orthogonalEdgeStyle;rounded=1;orthogonalLoop=1;jettySize=auto;fillColor=#dae8fc;strokeColor=#6c8ebf;textShadow=1;strokeWidth=1;shadow=1;html=1;horizontal=1;fontSize=11;fontStyle=0;spacing=2;exitX=0.5;exitY=1;exitDx=0;exitDy=0;" parent="1" edge="1">
          <mxGeometry relative="1" as="geometry">
            <mxPoint x="402.59000000000003" y="240" as="sourcePoint" />
            <mxPoint x="402.8" y="270" as="targetPoint" />
          </mxGeometry>
        </mxCell>
        <mxCell id="PQLrcjKw0SPNk92803Bu-7" value="Escribir(&quot;Ingrese los datos: &quot;);" style="rounded=1;whiteSpace=wrap;fillColor=#fff2cc;strokeColor=#d6b656;textShadow=1;strokeWidth=1;shadow=1;html=1;horizontal=1;fontSize=11;fontStyle=0;spacing=2;" parent="1" vertex="1">
          <mxGeometry x="235.6" y="340" width="334.4" height="40" as="geometry" />
        </mxCell>
        <mxCell id="PQLrcjKw0SPNk92803Bu-8" value="" style="edgeStyle=orthogonalEdgeStyle;rounded=1;orthogonalLoop=1;jettySize=auto;fillColor=#dae8fc;strokeColor=#6c8ebf;textShadow=1;strokeWidth=1;shadow=1;html=1;horizontal=1;fontSize=11;fontStyle=0;spacing=2;exitX=0.5;exitY=1;exitDx=0;exitDy=0;" parent="1" edge="1">
          <mxGeometry relative="1" as="geometry">
            <mxPoint x="402.59000000000003" y="310" as="sourcePoint" />
            <mxPoint x="402.8" y="340" as="targetPoint" />
          </mxGeometry>
        </mxCell>
        <mxCell id="PQLrcjKw0SPNk92803Bu-9" value="" style="edgeStyle=orthogonalEdgeStyle;rounded=1;orthogonalLoop=1;jettySize=auto;fillColor=#dae8fc;strokeColor=#6c8ebf;textShadow=1;strokeWidth=1;shadow=1;html=1;horizontal=1;fontSize=11;fontStyle=0;spacing=2;exitX=0.5;exitY=1;exitDx=0;exitDy=0;" parent="1" edge="1">
          <mxGeometry relative="1" as="geometry">
            <mxPoint x="402.6700000000001" y="380" as="sourcePoint" />
            <mxPoint x="402.88000000000005" y="410" as="targetPoint" />
          </mxGeometry>
        </mxCell>
        <mxCell id="W8mMLWY3pMMdg0mtY3-3-1" value="mostrar_productos_por_existencia_menor(galleta);" style="rounded=1;whiteSpace=wrap;fillColor=#fff2cc;strokeColor=#d6b656;textShadow=1;strokeWidth=1;shadow=1;html=1;horizontal=1;fontSize=11;fontStyle=0;spacing=2;" vertex="1" parent="1">
          <mxGeometry x="113" y="600" width="250" height="40" as="geometry" />
        </mxCell>
        <mxCell id="W8mMLWY3pMMdg0mtY3-3-2" value="" style="edgeStyle=orthogonalEdgeStyle;rounded=1;orthogonalLoop=1;jettySize=auto;fillColor=#dae8fc;strokeColor=#6c8ebf;textShadow=1;strokeWidth=1;shadow=1;html=1;horizontal=1;fontSize=11;fontStyle=0;spacing=2;" edge="1" parent="1">
          <mxGeometry relative="1" as="geometry">
            <mxPoint x="243" y="470" as="sourcePoint" />
            <mxPoint x="242.92000000000004" y="600" as="targetPoint" />
            <Array as="points">
              <mxPoint x="243" y="520" />
              <mxPoint x="243" y="520" />
            </Array>
          </mxGeometry>
        </mxCell>
        <mxCell id="W8mMLWY3pMMdg0mtY3-3-52" value="4" style="edgeLabel;html=1;align=center;verticalAlign=middle;resizable=0;points=[];" vertex="1" connectable="0" parent="W8mMLWY3pMMdg0mtY3-3-2">
          <mxGeometry x="-0.0359" y="1" relative="1" as="geometry">
            <mxPoint as="offset" />
          </mxGeometry>
        </mxCell>
        <mxCell id="W8mMLWY3pMMdg0mtY3-3-9" value="mostrar_inventario(galleta);" style="rounded=1;whiteSpace=wrap;fillColor=#fff2cc;strokeColor=#d6b656;textShadow=1;strokeWidth=1;shadow=1;html=1;horizontal=1;fontSize=11;fontStyle=0;spacing=2;" vertex="1" parent="1">
          <mxGeometry x="-157" y="600" width="240" height="40" as="geometry" />
        </mxCell>
        <mxCell id="W8mMLWY3pMMdg0mtY3-3-10" value="" style="edgeStyle=orthogonalEdgeStyle;rounded=1;orthogonalLoop=1;jettySize=auto;fillColor=#dae8fc;strokeColor=#6c8ebf;textShadow=1;strokeWidth=1;shadow=1;html=1;horizontal=1;fontSize=11;fontStyle=0;spacing=2;" edge="1" parent="1">
          <mxGeometry relative="1" as="geometry">
            <mxPoint x="-37" y="470" as="sourcePoint" />
            <mxPoint x="-37.07999999999993" y="600" as="targetPoint" />
          </mxGeometry>
        </mxCell>
        <mxCell id="W8mMLWY3pMMdg0mtY3-3-51" value="3" style="edgeLabel;html=1;align=center;verticalAlign=middle;resizable=0;points=[];" vertex="1" connectable="0" parent="W8mMLWY3pMMdg0mtY3-3-10">
          <mxGeometry x="-0.0538" relative="1" as="geometry">
            <mxPoint as="offset" />
          </mxGeometry>
        </mxCell>
        <mxCell id="W8mMLWY3pMMdg0mtY3-3-11" value="insertar_producto(galleta);" style="rounded=1;whiteSpace=wrap;fillColor=#fff2cc;strokeColor=#d6b656;textShadow=1;strokeWidth=1;shadow=1;html=1;horizontal=1;fontSize=11;fontStyle=0;spacing=2;" vertex="1" parent="1">
          <mxGeometry x="-717" y="600" width="240" height="40" as="geometry" />
        </mxCell>
        <mxCell id="W8mMLWY3pMMdg0mtY3-3-12" value="" style="edgeStyle=orthogonalEdgeStyle;rounded=1;orthogonalLoop=1;jettySize=auto;fillColor=#dae8fc;strokeColor=#6c8ebf;textShadow=1;strokeWidth=1;shadow=1;html=1;horizontal=1;fontSize=11;fontStyle=0;spacing=2;entryX=0.5;entryY=0;entryDx=0;entryDy=0;exitX=0.026;exitY=0.498;exitDx=0;exitDy=0;exitPerimeter=0;" edge="1" parent="1" source="PQLrcjKw0SPNk92803Bu-10" target="W8mMLWY3pMMdg0mtY3-3-11">
          <mxGeometry relative="1" as="geometry">
            <mxPoint x="313" y="470" as="sourcePoint" />
            <mxPoint x="-318.0799999999999" y="600" as="targetPoint" />
          </mxGeometry>
        </mxCell>
        <mxCell id="W8mMLWY3pMMdg0mtY3-3-49" value="1" style="edgeLabel;html=1;align=center;verticalAlign=middle;resizable=0;points=[];" vertex="1" connectable="0" parent="W8mMLWY3pMMdg0mtY3-3-12">
          <mxGeometry x="0.8828" y="-2" relative="1" as="geometry">
            <mxPoint x="1" as="offset" />
          </mxGeometry>
        </mxCell>
        <mxCell id="W8mMLWY3pMMdg0mtY3-3-14" value="modificar_datos(galleta);" style="rounded=1;whiteSpace=wrap;fillColor=#fff2cc;strokeColor=#d6b656;textShadow=1;strokeWidth=1;shadow=1;html=1;horizontal=1;fontSize=11;fontStyle=0;spacing=2;" vertex="1" parent="1">
          <mxGeometry x="-437" y="600" width="240" height="40" as="geometry" />
        </mxCell>
        <mxCell id="W8mMLWY3pMMdg0mtY3-3-15" value="" style="edgeStyle=orthogonalEdgeStyle;rounded=1;orthogonalLoop=1;jettySize=auto;fillColor=#dae8fc;strokeColor=#6c8ebf;textShadow=1;strokeWidth=1;shadow=1;html=1;horizontal=1;fontSize=11;fontStyle=0;spacing=2;" edge="1" parent="1">
          <mxGeometry relative="1" as="geometry">
            <mxPoint x="-317.22" y="470" as="sourcePoint" />
            <mxPoint x="-317.29999999999995" y="600" as="targetPoint" />
          </mxGeometry>
        </mxCell>
        <mxCell id="W8mMLWY3pMMdg0mtY3-3-50" value="2" style="edgeLabel;html=1;align=center;verticalAlign=middle;resizable=0;points=[];" vertex="1" connectable="0" parent="W8mMLWY3pMMdg0mtY3-3-15">
          <mxGeometry x="-0.0363" relative="1" as="geometry">
            <mxPoint as="offset" />
          </mxGeometry>
        </mxCell>
        <mxCell id="W8mMLWY3pMMdg0mtY3-3-26" value="Escribir(&quot;Opcion invalida. Intentelo de nuevo.&quot;);" style="rounded=1;whiteSpace=wrap;fillColor=#fff2cc;strokeColor=#d6b656;textShadow=1;strokeWidth=1;shadow=1;html=1;horizontal=1;fontSize=11;fontStyle=0;spacing=2;flipH=1;" vertex="1" parent="1">
          <mxGeometry x="1283" y="600" width="260" height="40" as="geometry" />
        </mxCell>
        <mxCell id="W8mMLWY3pMMdg0mtY3-3-27" value="" style="edgeStyle=orthogonalEdgeStyle;rounded=1;orthogonalLoop=1;jettySize=auto;fillColor=#dae8fc;strokeColor=#6c8ebf;textShadow=1;strokeWidth=1;shadow=1;html=1;horizontal=1;fontSize=11;fontStyle=0;spacing=2;exitX=1;exitY=0.5;exitDx=0;exitDy=0;" edge="1" parent="1">
          <mxGeometry relative="1" as="geometry">
            <mxPoint x="481.7999999999997" y="470" as="sourcePoint" />
            <mxPoint x="1402" y="600" as="targetPoint" />
          </mxGeometry>
        </mxCell>
        <mxCell id="W8mMLWY3pMMdg0mtY3-3-56" value="8" style="edgeLabel;html=1;align=center;verticalAlign=middle;resizable=0;points=[];" vertex="1" connectable="0" parent="W8mMLWY3pMMdg0mtY3-3-27">
          <mxGeometry x="0.8654" relative="1" as="geometry">
            <mxPoint x="-1" as="offset" />
          </mxGeometry>
        </mxCell>
        <mxCell id="W8mMLWY3pMMdg0mtY3-3-29" value="" style="edgeStyle=orthogonalEdgeStyle;rounded=1;orthogonalLoop=1;jettySize=auto;fillColor=#dae8fc;strokeColor=#6c8ebf;textShadow=1;strokeWidth=1;shadow=1;html=1;horizontal=1;fontSize=11;fontStyle=0;spacing=2;" edge="1" parent="1">
          <mxGeometry relative="1" as="geometry">
            <mxPoint x="1123.8781818181822" y="470" as="sourcePoint" />
            <mxPoint x="480" y="960" as="targetPoint" />
            <Array as="points">
              <mxPoint x="1124" y="960" />
            </Array>
          </mxGeometry>
        </mxCell>
        <mxCell id="W8mMLWY3pMMdg0mtY3-3-55" value="7" style="edgeLabel;html=1;align=center;verticalAlign=middle;resizable=0;points=[];" vertex="1" connectable="0" parent="W8mMLWY3pMMdg0mtY3-3-29">
          <mxGeometry x="-0.9098" y="-1" relative="1" as="geometry">
            <mxPoint as="offset" />
          </mxGeometry>
        </mxCell>
        <mxCell id="W8mMLWY3pMMdg0mtY3-3-30" value="mostrar_productos_por_proveedor(galleta);" style="rounded=1;whiteSpace=wrap;fillColor=#fff2cc;strokeColor=#d6b656;textShadow=1;strokeWidth=1;shadow=1;html=1;horizontal=1;fontSize=11;fontStyle=0;spacing=2;flipH=1;" vertex="1" parent="1">
          <mxGeometry x="443.00000000000006" y="600" width="240" height="40" as="geometry" />
        </mxCell>
        <mxCell id="W8mMLWY3pMMdg0mtY3-3-31" value="" style="edgeStyle=orthogonalEdgeStyle;rounded=1;orthogonalLoop=1;jettySize=auto;fillColor=#dae8fc;strokeColor=#6c8ebf;textShadow=1;strokeWidth=1;shadow=1;html=1;horizontal=1;fontSize=11;fontStyle=0;spacing=2;entryX=0.5;entryY=0;entryDx=0;entryDy=0;" edge="1" parent="1" target="W8mMLWY3pMMdg0mtY3-3-30">
          <mxGeometry relative="1" as="geometry">
            <mxPoint x="563" y="470" as="sourcePoint" />
            <mxPoint x="1203.299999999999" y="600" as="targetPoint" />
            <Array as="points">
              <mxPoint x="563" y="570" />
            </Array>
          </mxGeometry>
        </mxCell>
        <mxCell id="W8mMLWY3pMMdg0mtY3-3-53" value="5" style="edgeLabel;html=1;align=center;verticalAlign=middle;resizable=0;points=[];" vertex="1" connectable="0" parent="W8mMLWY3pMMdg0mtY3-3-31">
          <mxGeometry x="-0.0786" y="1" relative="1" as="geometry">
            <mxPoint as="offset" />
          </mxGeometry>
        </mxCell>
        <mxCell id="W8mMLWY3pMMdg0mtY3-3-32" value="mostrar_productos_por_precio_mayor(galleta);" style="rounded=1;whiteSpace=wrap;fillColor=#fff2cc;strokeColor=#d6b656;textShadow=1;strokeWidth=1;shadow=1;html=1;horizontal=1;fontSize=11;fontStyle=0;spacing=2;flipH=1;" vertex="1" parent="1">
          <mxGeometry x="723.0000000000001" y="600" width="240" height="40" as="geometry" />
        </mxCell>
        <mxCell id="W8mMLWY3pMMdg0mtY3-3-33" value="" style="edgeStyle=orthogonalEdgeStyle;rounded=1;orthogonalLoop=1;jettySize=auto;fillColor=#dae8fc;strokeColor=#6c8ebf;textShadow=1;strokeWidth=1;shadow=1;html=1;horizontal=1;fontSize=11;fontStyle=0;spacing=2;" edge="1" parent="1">
          <mxGeometry relative="1" as="geometry">
            <mxPoint x="842.7981818181818" y="470" as="sourcePoint" />
            <mxPoint x="842.8781818181817" y="600" as="targetPoint" />
          </mxGeometry>
        </mxCell>
        <mxCell id="W8mMLWY3pMMdg0mtY3-3-54" value="6" style="edgeLabel;html=1;align=center;verticalAlign=middle;resizable=0;points=[];" vertex="1" connectable="0" parent="W8mMLWY3pMMdg0mtY3-3-33">
          <mxGeometry x="-0.0709" relative="1" as="geometry">
            <mxPoint as="offset" />
          </mxGeometry>
        </mxCell>
        <mxCell id="PQLrcjKw0SPNk92803Bu-10" value="SI calif es:" style="rhombus;whiteSpace=wrap;rounded=1;fillColor=#f8cecc;strokeColor=#b85450;textShadow=1;strokeWidth=1;shadow=1;html=1;horizontal=1;fontSize=11;fontStyle=0;spacing=2;" parent="1" vertex="1">
          <mxGeometry x="322.8" y="410" width="160" height="120" as="geometry" />
        </mxCell>
        <mxCell id="W8mMLWY3pMMdg0mtY3-3-37" style="edgeStyle=orthogonalEdgeStyle;rounded=0;orthogonalLoop=1;jettySize=auto;html=1;entryX=1;entryY=0.5;entryDx=0;entryDy=0;exitX=0.973;exitY=0.499;exitDx=0;exitDy=0;fillColor=#dae8fc;strokeColor=#6c8ebf;exitPerimeter=0;" edge="1" parent="1" source="W8mMLWY3pMMdg0mtY3-3-36" target="gqJFN9A-wY2o9Y6DUlTp-11">
          <mxGeometry relative="1" as="geometry">
            <mxPoint x="640" y="150" as="targetPoint" />
            <Array as="points">
              <mxPoint x="1600" y="820" />
              <mxPoint x="1600" y="150" />
            </Array>
          </mxGeometry>
        </mxCell>
        <mxCell id="W8mMLWY3pMMdg0mtY3-3-38" value="NO" style="edgeLabel;html=1;align=center;verticalAlign=middle;resizable=0;points=[];" vertex="1" connectable="0" parent="W8mMLWY3pMMdg0mtY3-3-37">
          <mxGeometry x="0.5985" relative="1" as="geometry">
            <mxPoint as="offset" />
          </mxGeometry>
        </mxCell>
        <mxCell id="W8mMLWY3pMMdg0mtY3-3-40" style="edgeStyle=orthogonalEdgeStyle;rounded=0;orthogonalLoop=1;jettySize=auto;html=1;entryX=0.5;entryY=0;entryDx=0;entryDy=0;fillColor=#dae8fc;strokeColor=#6c8ebf;" edge="1" parent="1" source="W8mMLWY3pMMdg0mtY3-3-36" target="W8mMLWY3pMMdg0mtY3-3-39">
          <mxGeometry relative="1" as="geometry" />
        </mxCell>
        <mxCell id="W8mMLWY3pMMdg0mtY3-3-36" value="opcion = 7" style="rhombus;whiteSpace=wrap;rounded=1;fillColor=#f8cecc;strokeColor=#b85450;textShadow=1;strokeWidth=1;shadow=1;html=1;horizontal=1;fontSize=11;fontStyle=0;spacing=2;" vertex="1" parent="1">
          <mxGeometry x="322.8" y="760" width="160" height="120" as="geometry" />
        </mxCell>
        <mxCell id="W8mMLWY3pMMdg0mtY3-3-39" value="INICIO - menu" style="ellipse;whiteSpace=wrap;rounded=1;fillColor=#dae8fc;strokeColor=#6c8ebf;textShadow=1;strokeWidth=1;shadow=1;html=1;horizontal=1;fontSize=11;fontStyle=0;spacing=2;" vertex="1" parent="1">
          <mxGeometry x="332.8" y="920" width="140" height="80" as="geometry" />
        </mxCell>
        <mxCell id="W8mMLWY3pMMdg0mtY3-3-42" value="" style="endArrow=none;html=1;rounded=0;edgeStyle=orthogonalEdgeStyle;exitX=0.5;exitY=1;exitDx=0;exitDy=0;fillColor=#dae8fc;strokeColor=#6c8ebf;" edge="1" parent="1" source="W8mMLWY3pMMdg0mtY3-3-11">
          <mxGeometry width="50" height="50" relative="1" as="geometry">
            <mxPoint x="-610" y="790" as="sourcePoint" />
            <mxPoint x="1402" y="641" as="targetPoint" />
            <Array as="points">
              <mxPoint x="-597" y="720" />
              <mxPoint x="1402" y="720" />
            </Array>
          </mxGeometry>
        </mxCell>
        <mxCell id="W8mMLWY3pMMdg0mtY3-3-43" value="" style="endArrow=none;html=1;rounded=0;fillColor=#dae8fc;strokeColor=#6c8ebf;edgeStyle=orthogonalEdgeStyle;entryX=0.5;entryY=1;entryDx=0;entryDy=0;" edge="1" parent="1" target="W8mMLWY3pMMdg0mtY3-3-14">
          <mxGeometry width="50" height="50" relative="1" as="geometry">
            <mxPoint x="-317" y="720" as="sourcePoint" />
            <mxPoint x="-317" y="585" as="targetPoint" />
            <Array as="points">
              <mxPoint x="-317" y="710" />
            </Array>
          </mxGeometry>
        </mxCell>
        <mxCell id="W8mMLWY3pMMdg0mtY3-3-44" value="" style="endArrow=none;html=1;rounded=0;fillColor=#dae8fc;strokeColor=#6c8ebf;edgeStyle=orthogonalEdgeStyle;entryX=0.5;entryY=1;entryDx=0;entryDy=0;" edge="1" parent="1">
          <mxGeometry width="50" height="50" relative="1" as="geometry">
            <mxPoint x="-37.44999999999999" y="720" as="sourcePoint" />
            <mxPoint x="-37.44999999999999" y="640" as="targetPoint" />
            <Array as="points">
              <mxPoint x="-37.44999999999999" y="710" />
            </Array>
          </mxGeometry>
        </mxCell>
        <mxCell id="W8mMLWY3pMMdg0mtY3-3-45" value="" style="endArrow=none;html=1;rounded=0;fillColor=#dae8fc;strokeColor=#6c8ebf;edgeStyle=orthogonalEdgeStyle;entryX=0.5;entryY=1;entryDx=0;entryDy=0;" edge="1" parent="1">
          <mxGeometry width="50" height="50" relative="1" as="geometry">
            <mxPoint x="242.6" y="721" as="sourcePoint" />
            <mxPoint x="242.6" y="641" as="targetPoint" />
            <Array as="points">
              <mxPoint x="242.6" y="661" />
              <mxPoint x="242.6" y="661" />
            </Array>
          </mxGeometry>
        </mxCell>
        <mxCell id="W8mMLWY3pMMdg0mtY3-3-46" value="" style="endArrow=none;html=1;rounded=0;fillColor=#dae8fc;strokeColor=#6c8ebf;edgeStyle=orthogonalEdgeStyle;entryX=0.5;entryY=1;entryDx=0;entryDy=0;" edge="1" parent="1">
          <mxGeometry width="50" height="50" relative="1" as="geometry">
            <mxPoint x="562.81" y="720" as="sourcePoint" />
            <mxPoint x="562.81" y="640" as="targetPoint" />
            <Array as="points">
              <mxPoint x="562.81" y="660" />
              <mxPoint x="562.81" y="660" />
            </Array>
          </mxGeometry>
        </mxCell>
        <mxCell id="W8mMLWY3pMMdg0mtY3-3-47" value="" style="endArrow=none;html=1;rounded=0;fillColor=#dae8fc;strokeColor=#6c8ebf;edgeStyle=orthogonalEdgeStyle;entryX=0.5;entryY=1;entryDx=0;entryDy=0;" edge="1" parent="1">
          <mxGeometry width="50" height="50" relative="1" as="geometry">
            <mxPoint x="842.81" y="720" as="sourcePoint" />
            <mxPoint x="842.81" y="640" as="targetPoint" />
            <Array as="points">
              <mxPoint x="842.81" y="660" />
              <mxPoint x="842.81" y="660" />
            </Array>
          </mxGeometry>
        </mxCell>
        <mxCell id="W8mMLWY3pMMdg0mtY3-3-58" value="" style="endArrow=none;html=1;rounded=0;fillColor=#dae8fc;strokeColor=#6c8ebf;edgeStyle=orthogonalEdgeStyle;entryX=0.5;entryY=1;entryDx=0;entryDy=0;exitX=0.499;exitY=0.021;exitDx=0;exitDy=0;exitPerimeter=0;" edge="1" parent="1" source="W8mMLWY3pMMdg0mtY3-3-36">
          <mxGeometry width="50" height="50" relative="1" as="geometry">
            <mxPoint x="402.56" y="760" as="sourcePoint" />
            <mxPoint x="403.04999999999995" y="720" as="targetPoint" />
            <Array as="points">
              <mxPoint x="403" y="740" />
              <mxPoint x="403" y="740" />
            </Array>
          </mxGeometry>
        </mxCell>
      </root>
    </mxGraphModel>
  </diagram>
</mxfile>
